M48
; DRILL file {KiCad (7.0.0)} date Sun Sep  1 14:50:31 2024
; FORMAT={-:-/ absolute / inch / decimal}
; #@! TF.CreationDate,2024-09-01T14:50:31+02:00
; #@! TF.GenerationSoftware,Kicad,Pcbnew,(7.0.0)
; #@! TF.FileFunction,Plated,1,2,PTH
FMAT,2
INCH
; #@! TA.AperFunction,Plated,PTH,ViaDrill
T1C0.0157
; #@! TA.AperFunction,Plated,PTH,ComponentDrill
T2C0.0315
; #@! TA.AperFunction,Plated,PTH,ComponentDrill
T3C0.0354
; #@! TA.AperFunction,Plated,PTH,ComponentDrill
T4C0.0394
; #@! TA.AperFunction,Plated,PTH,ComponentDrill
T5C0.0433
; #@! TA.AperFunction,Plated,PTH,ComponentDrill
T6C0.0472
; #@! TA.AperFunction,Plated,PTH,ComponentDrill
T7C0.0591
; #@! TA.AperFunction,Plated,PTH,ComponentDrill
T8C0.0598
%
G90
G05
T1
X1.3704Y-2.5174
X1.5746Y-2.7266
X1.6533Y-2.5174
X3.0415Y-1.5437
X3.0415Y-1.6437
X3.2974Y-2.5476
X3.3171Y-2.4295
X3.4156Y-1.6437
X3.514Y-2.5476
X3.6518Y-2.4295
X3.6911Y-1.7406
X3.6911Y-1.839
X4.2999Y-1.6688
T2
X1.0227Y-5.7979
X1.0329Y-3.0686
X1.0329Y-3.1671
X1.2627Y-2.5174
X1.2627Y-2.9174
X1.2627Y-3.0686
X1.2627Y-3.4686
X1.4227Y-5.7979
X1.7219Y-3.0686
X1.7219Y-3.1671
X1.8477Y-5.1979
X1.8477Y-5.4229
X1.9516Y-2.5174
X1.9516Y-2.9174
X1.9516Y-3.0686
X1.9516Y-3.4686
X2.0957Y-2.9149
X2.2477Y-5.1979
X2.2477Y-5.4229
X2.4957Y-2.9149
X2.6666Y-2.9149
X2.8644Y-1.1303
X2.8644Y-1.2484
X3.0666Y-2.9149
X3.2644Y-1.1303
X3.2644Y-1.2484
X3.7684Y-2.4956
X3.7684Y-2.6924
X3.7684Y-2.7909
X3.7684Y-2.9877
X3.8865Y-1.472
X3.8865Y-1.872
X3.9456Y-2.6373
X3.9456Y-2.8302
X4.1424Y-1.8657
X4.1424Y-1.9657
X4.1424Y-2.0657
X4.1424Y-2.1657
X4.1424Y-2.2657
X4.1424Y-2.3657
X4.1424Y-2.4657
X4.1424Y-2.5657
X4.1424Y-2.6657
X4.1424Y-2.7657
X4.1424Y-2.8657
X4.1424Y-2.9657
X4.1424Y-3.0657
X4.1424Y-3.1657
X4.4424Y-1.8657
X4.4424Y-1.9657
X4.4424Y-2.0657
X4.4424Y-2.1657
X4.4424Y-2.2657
X4.4424Y-2.3657
X4.4424Y-2.4657
X4.4424Y-2.5657
X4.4424Y-2.6657
X4.4424Y-2.7657
X4.4424Y-2.8657
X4.4424Y-2.9657
X4.4424Y-3.0657
X4.4424Y-3.1657
T3
X3.4549Y-1.15
X3.4549Y-1.25
T4
X2.0009Y-6.2511
X2.0009Y-6.4479
X2.1977Y-6.2511
X2.1977Y-6.4479
X2.4116Y-1.15
X2.4116Y-1.3469
X2.6085Y-1.15
X2.6085Y-1.3469
T5
X2.8053Y-1.4846
X2.8053Y-1.5846
X2.8053Y-1.6846
T6
X1.0227Y-6.0229
X1.0227Y-6.2729
X1.0227Y-6.5729
X1.6133Y-6.5729
X1.6227Y-6.0229
X1.6227Y-6.2729
X2.1172Y-5.7125
X2.451Y-2.0555
X2.6478Y-2.0555
X2.7078Y-5.7125
X3.0022Y-2.0555
X3.199Y-2.0555
T7
X1.3289Y-1.3075
X1.3289Y-1.5043
X1.3289Y-1.7012
X1.3289Y-1.898
X1.3289Y-2.0949
X2.1163Y-1.3075
X2.1163Y-1.5043
X2.1163Y-1.7012
X2.1163Y-1.898
X2.1163Y-2.0949
X2.9375Y-4.4875
X2.9375Y-4.7021
X2.9375Y-4.9166
T8
X0.9935Y-2.5855
X0.9935Y-2.7855
X0.9943Y-1.2878
X0.9943Y-1.4878
X0.9943Y-1.7799
X0.9943Y-1.9799
X1.1Y-4.025
X1.1Y-4.225
X1.1Y-4.425
X1.1Y-4.625
X1.1375Y-5.0625
X1.1375Y-5.2625
X1.7125Y-4.6875
X1.7125Y-4.8875
X2.2935Y-3.125
X2.2935Y-3.325
X2.6375Y-4.4875
X2.6375Y-4.6875
X2.6375Y-4.8875
X3.7667Y-1.2287
X3.9667Y-1.2287
X4.1998Y-1.2287
X4.3998Y-1.2287
T0
M30
